<svg width="180" height="180" viewBox="0 0 180 180" fill="none" xmlns="http://www.w3.org/2000/svg">
<path d="M85.2652 178.734C131.64 178.734 169.235 142.088 169.235 96.8835C169.235 51.6787 131.64 15.0331 85.2652 15.0331C38.89 15.0331 1.29554 51.6787 1.29554 96.8835C1.29554 142.088 38.89 178.734 85.2652 178.734Z" stroke="#547E88" stroke-width="2.11682" stroke-linecap="round" stroke-linejoin="round"/>
<path d="M94.613 165.818C140.988 165.818 178.583 129.172 178.583 83.9673C178.583 38.7625 140.988 2.11685 94.613 2.11685C48.2378 2.11685 10.6433 38.7625 10.6433 83.9673C10.6433 129.172 48.2378 165.818 94.613 165.818Z" stroke="#547E88" stroke-width="2.11682" stroke-linecap="round" stroke-linejoin="round"/>
<path d="M18.3232 95.0361L63.6328 75.6235V84.0532L27.2798 99.332L63.6328 114.53V123L18.3232 103.587V95.0361ZM73.6025 127.134L95.6089 60.75H103.633L81.2217 127.134H73.6025ZM158.953 103.587L113.644 123V114.53L149.916 99.332L113.644 84.0532V75.6235L158.953 95.0361V103.587Z" fill="#CCCCCC"/>
</svg>
